<?xml version="1.0" encoding="UTF-8" standalone="no"?>
<!DOCTYPE svg PUBLIC "-//W3C//DTD SVG 1.1//EN"
 "http://www.w3.org/Graphics/SVG/1.1/DTD/svg11.dtd">
<!-- Generated by graphviz version 2.40.1 (20161225.0304)
 -->
<!-- Title: dependencies Pages: 1 -->
<svg width="1175pt" height="211pt"
 viewBox="0.00 0.00 1175.00 211.00" xmlns="http://www.w3.org/2000/svg" xmlns:xlink="http://www.w3.org/1999/xlink">
<g id="graph0" class="graph" transform="scale(1 1) rotate(0) translate(4 207)">
<title>dependencies</title>
<polygon fill="#ffffff" stroke="transparent" points="-4,4 -4,-207 1171,-207 1171,4 -4,4"/>
<text text-anchor="start" x="562.5091" y="-42.4" font-family="sans-serif" font-weight="bold" font-size="14.00" fill="#000000">Legend</text>
<polygon fill="#ffffb3" stroke="transparent" points="349.5,-10 349.5,-30 369.5,-30 369.5,-10 349.5,-10"/>
<text text-anchor="start" x="373.129" y="-15.4" font-family="sans-serif" font-size="14.00" fill="#000000"> &#160;Declarations</text>
<polygon fill="#8dd3c7" stroke="transparent" points="462.5,-10 462.5,-30 482.5,-30 482.5,-10 462.5,-10"/>
<text text-anchor="start" x="486.2251" y="-15.4" font-family="sans-serif" font-size="14.00" fill="#000000"> &#160;Module</text>
<polygon fill="#80b1d3" stroke="transparent" points="548.5,-10 548.5,-30 568.5,-30 568.5,-10 548.5,-10"/>
<text text-anchor="start" x="572.2812" y="-15.4" font-family="sans-serif" font-size="14.00" fill="#000000"> &#160;Bootstrap</text>
<polygon fill="#fdb462" stroke="transparent" points="645.5,-10 645.5,-30 665.5,-30 665.5,-10 645.5,-10"/>
<text text-anchor="start" x="669.1732" y="-15.4" font-family="sans-serif" font-size="14.00" fill="#000000"> &#160;Providers</text>
<polygon fill="#fb8072" stroke="transparent" points="741.5,-10 741.5,-30 761.5,-30 761.5,-10 741.5,-10"/>
<text text-anchor="start" x="765.2258" y="-15.4" font-family="sans-serif" font-size="14.00" fill="#000000"> &#160;Exports</text>
<g id="clust1" class="cluster">
<title>cluster_UploadModule</title>
<polygon fill="none" stroke="#000000" stroke-dasharray="1,5" points="8,-70 8,-195 1159,-195 1159,-70 8,-70"/>
</g>
<g id="clust2" class="cluster">
<title>cluster_UploadModule_declarations</title>
<polygon fill="none" stroke="#000000" points="469,-78 469,-130 1151,-130 1151,-78 469,-78"/>
</g>
<g id="clust7" class="cluster">
<title>cluster_UploadModule_imports</title>
<polygon fill="none" stroke="#000000" points="214,-78 214,-130 461,-130 461,-78 214,-78"/>
</g>
<g id="clust10" class="cluster">
<title>cluster_UploadModule_providers</title>
<polygon fill="none" stroke="#000000" points="16,-78 16,-130 206,-130 206,-78 16,-78"/>
</g>
<!-- FileTableComponent -->
<g id="node1" class="node">
<title>FileTableComponent</title>
<polygon fill="#ffffb3" stroke="#000000" points="1143.4832,-122 1008.5168,-122 1008.5168,-86 1143.4832,-86 1143.4832,-122"/>
<text text-anchor="middle" x="1076" y="-99.8" font-family="Times,serif" font-size="14.00" fill="#000000">FileTableComponent</text>
</g>
<!-- UploadModule -->
<g id="node5" class="node">
<title>UploadModule</title>
<polygon fill="#8dd3c7" stroke="#000000" points="603.2619,-187 600.2619,-191 579.2619,-191 576.2619,-187 502.7381,-187 502.7381,-151 603.2619,-151 603.2619,-187"/>
<text text-anchor="middle" x="553" y="-164.8" font-family="Times,serif" font-size="14.00" fill="#000000">UploadModule</text>
</g>
<!-- FileTableComponent&#45;&gt;UploadModule -->
<g id="edge1" class="edge">
<title>FileTableComponent&#45;&gt;UploadModule</title>
<path fill="none" stroke="#000000" d="M1076,-122.2921C1076,-144.2057 1076,-178 1076,-178 1076,-178 613.6226,-178 613.6226,-178"/>
<polygon fill="#000000" stroke="#000000" points="613.6227,-174.5001 603.6226,-178 613.6226,-181.5001 613.6227,-174.5001"/>
</g>
<!-- UploadDialogueComponent -->
<g id="node2" class="node">
<title>UploadDialogueComponent</title>
<polygon fill="#ffffb3" stroke="#000000" points="990.8613,-122 817.1387,-122 817.1387,-86 990.8613,-86 990.8613,-122"/>
<text text-anchor="middle" x="904" y="-99.8" font-family="Times,serif" font-size="14.00" fill="#000000">UploadDialogueComponent</text>
</g>
<!-- UploadDialogueComponent&#45;&gt;UploadModule -->
<g id="edge2" class="edge">
<title>UploadDialogueComponent&#45;&gt;UploadModule</title>
<path fill="none" stroke="#000000" d="M904,-122.1061C904,-141.3391 904,-169 904,-169 904,-169 613.2897,-169 613.2897,-169"/>
<polygon fill="#000000" stroke="#000000" points="613.2898,-165.5001 603.2897,-169 613.2897,-172.5001 613.2898,-165.5001"/>
</g>
<!-- UploadFormComponent -->
<g id="node3" class="node">
<title>UploadFormComponent</title>
<polygon fill="#ffffb3" stroke="#000000" points="799.378,-122 646.622,-122 646.622,-86 799.378,-86 799.378,-122"/>
<text text-anchor="middle" x="723" y="-99.8" font-family="Times,serif" font-size="14.00" fill="#000000">UploadFormComponent</text>
</g>
<!-- UploadFormComponent&#45;&gt;UploadModule -->
<g id="edge3" class="edge">
<title>UploadFormComponent&#45;&gt;UploadModule</title>
<path fill="none" stroke="#000000" d="M723,-122.027C723,-138.3976 723,-160 723,-160 723,-160 613.5453,-160 613.5453,-160"/>
<polygon fill="#000000" stroke="#000000" points="613.5454,-156.5001 603.5453,-160 613.5453,-163.5001 613.5454,-156.5001"/>
</g>
<!-- UploadMainComponent -->
<g id="node4" class="node">
<title>UploadMainComponent</title>
<polygon fill="#ffffb3" stroke="#000000" points="629.094,-122 476.906,-122 476.906,-86 629.094,-86 629.094,-122"/>
<text text-anchor="middle" x="553" y="-99.8" font-family="Times,serif" font-size="14.00" fill="#000000">UploadMainComponent</text>
</g>
<!-- UploadMainComponent&#45;&gt;UploadModule -->
<g id="edge4" class="edge">
<title>UploadMainComponent&#45;&gt;UploadModule</title>
<path fill="none" stroke="#000000" d="M553,-122.1061C553,-122.1061 553,-140.991 553,-140.991"/>
<polygon fill="#000000" stroke="#000000" points="549.5001,-140.9909 553,-150.991 556.5001,-140.991 549.5001,-140.9909"/>
</g>
<!-- MaterialModule -->
<g id="node6" class="node">
<title>MaterialModule</title>
<polygon fill="#8dd3c7" stroke="#000000" points="453.4706,-122 450.4706,-126 429.4706,-126 426.4706,-122 346.5294,-122 346.5294,-86 453.4706,-86 453.4706,-122"/>
<text text-anchor="middle" x="400" y="-99.8" font-family="Times,serif" font-size="14.00" fill="#000000">MaterialModule</text>
</g>
<!-- MaterialModule&#45;&gt;UploadModule -->
<g id="edge5" class="edge">
<title>MaterialModule&#45;&gt;UploadModule</title>
<path fill="none" stroke="#000000" d="M400,-122.027C400,-138.3976 400,-160 400,-160 400,-160 492.4781,-160 492.4781,-160"/>
<polygon fill="#000000" stroke="#000000" points="492.4781,-163.5001 502.4781,-160 492.478,-156.5001 492.4781,-163.5001"/>
</g>
<!-- WidgetsModule -->
<g id="node7" class="node">
<title>WidgetsModule</title>
<polygon fill="#8dd3c7" stroke="#000000" points="328.205,-122 325.205,-126 304.205,-126 301.205,-122 221.795,-122 221.795,-86 328.205,-86 328.205,-122"/>
<text text-anchor="middle" x="275" y="-99.8" font-family="Times,serif" font-size="14.00" fill="#000000">WidgetsModule</text>
</g>
<!-- WidgetsModule&#45;&gt;UploadModule -->
<g id="edge6" class="edge">
<title>WidgetsModule&#45;&gt;UploadModule</title>
<path fill="none" stroke="#000000" d="M275,-122.1061C275,-141.3391 275,-169 275,-169 275,-169 492.6563,-169 492.6563,-169"/>
<polygon fill="#000000" stroke="#000000" points="492.6563,-172.5001 502.6563,-169 492.6563,-165.5001 492.6563,-172.5001"/>
</g>
<!-- UploadFilesService -->
<g id="node8" class="node">
<title>UploadFilesService</title>
<ellipse fill="#fdb462" stroke="#000000" cx="111" cy="-104" rx="87.3944" ry="18"/>
<text text-anchor="middle" x="111" y="-99.8" font-family="Times,serif" font-size="14.00" fill="#000000">UploadFilesService</text>
</g>
<!-- UploadFilesService&#45;&gt;UploadModule -->
<g id="edge7" class="edge">
<title>UploadFilesService&#45;&gt;UploadModule</title>
<path fill="none" stroke="#000000" d="M111,-122.2921C111,-144.2057 111,-178 111,-178 111,-178 492.7273,-178 492.7273,-178"/>
<polygon fill="#000000" stroke="#000000" points="492.7273,-181.5001 502.7273,-178 492.7273,-174.5001 492.7273,-181.5001"/>
</g>
</g>
</svg>
