<?xml version="1.0" encoding="UTF-8" standalone="no"?>
<!DOCTYPE svg PUBLIC "-//W3C//DTD SVG 1.1//EN"
 "http://www.w3.org/Graphics/SVG/1.1/DTD/svg11.dtd">
<!-- Generated by graphviz version 2.40.1 (20161225.0304)
 -->
<!-- Title: dependencies Pages: 1 -->
<svg width="654pt" height="284pt"
 viewBox="0.00 0.00 654.00 284.00" xmlns="http://www.w3.org/2000/svg" xmlns:xlink="http://www.w3.org/1999/xlink">
<g id="graph0" class="graph" transform="scale(1 1) rotate(0) translate(4 280)">
<title>dependencies</title>
<polygon fill="#ffffff" stroke="transparent" points="-4,4 -4,-280 650,-280 650,4 -4,4"/>
<text text-anchor="start" x="302.0091" y="-42.4" font-family="sans-serif" font-weight="bold" font-size="14.00" fill="#000000">Legend</text>
<polygon fill="#ffffb3" stroke="transparent" points="89,-10 89,-30 109,-30 109,-10 89,-10"/>
<text text-anchor="start" x="112.629" y="-15.4" font-family="sans-serif" font-size="14.00" fill="#000000"> &#160;Declarations</text>
<polygon fill="#8dd3c7" stroke="transparent" points="202,-10 202,-30 222,-30 222,-10 202,-10"/>
<text text-anchor="start" x="225.7251" y="-15.4" font-family="sans-serif" font-size="14.00" fill="#000000"> &#160;Module</text>
<polygon fill="#80b1d3" stroke="transparent" points="288,-10 288,-30 308,-30 308,-10 288,-10"/>
<text text-anchor="start" x="311.7812" y="-15.4" font-family="sans-serif" font-size="14.00" fill="#000000"> &#160;Bootstrap</text>
<polygon fill="#fdb462" stroke="transparent" points="385,-10 385,-30 405,-30 405,-10 385,-10"/>
<text text-anchor="start" x="408.6732" y="-15.4" font-family="sans-serif" font-size="14.00" fill="#000000"> &#160;Providers</text>
<polygon fill="#fb8072" stroke="transparent" points="481,-10 481,-30 501,-30 501,-10 481,-10"/>
<text text-anchor="start" x="504.7258" y="-15.4" font-family="sans-serif" font-size="14.00" fill="#000000"> &#160;Exports</text>
<g id="clust1" class="cluster">
<title>cluster_AppModule</title>
<polygon fill="none" stroke="#000000" stroke-dasharray="1,5" points="8,-70 8,-268 638,-268 638,-70 8,-70"/>
</g>
<g id="clust2" class="cluster">
<title>cluster_AppModule_declarations</title>
<polygon fill="none" stroke="#000000" points="508,-78 508,-130 630,-130 630,-78 508,-78"/>
</g>
<g id="clust4" class="cluster">
<title>cluster_AppModule_imports</title>
<polygon fill="none" stroke="#000000" points="16,-78 16,-130 500,-130 500,-78 16,-78"/>
</g>
<g id="clust6" class="cluster">
<title>cluster_AppModule_bootstrap</title>
<polygon fill="none" stroke="#000000" points="256,-208 256,-260 380,-260 380,-208 256,-208"/>
</g>
<!-- AppComponent -->
<g id="node1" class="node">
<title>AppComponent</title>
<polygon fill="#ffffb3" stroke="#000000" points="621.9399,-122 516.0601,-122 516.0601,-86 621.9399,-86 621.9399,-122"/>
<text text-anchor="middle" x="569" y="-99.8" font-family="Times,serif" font-size="14.00" fill="#000000">AppComponent</text>
</g>
<!-- AppModule -->
<g id="node2" class="node">
<title>AppModule</title>
<polygon fill="#8dd3c7" stroke="#000000" points="359.6571,-187 356.6571,-191 335.6571,-191 332.6571,-187 276.3429,-187 276.3429,-151 359.6571,-151 359.6571,-187"/>
<text text-anchor="middle" x="318" y="-164.8" font-family="Times,serif" font-size="14.00" fill="#000000">AppModule</text>
</g>
<!-- AppComponent&#45;&gt;AppModule -->
<g id="edge1" class="edge">
<title>AppComponent&#45;&gt;AppModule</title>
<path fill="none" stroke="#000000" d="M569,-122.2843C569,-143.3211 569,-175 569,-175 569,-175 369.7293,-175 369.7293,-175"/>
<polygon fill="#000000" stroke="#000000" points="369.7293,-171.5001 359.7293,-175 369.7293,-178.5001 369.7293,-171.5001"/>
</g>
<!-- AppComponent  -->
<g id="node7" class="node">
<title>AppComponent </title>
<polygon fill="#80b1d3" stroke="#000000" points="372.439,-252 263.561,-252 263.561,-216 372.439,-216 372.439,-252"/>
<text text-anchor="middle" x="318" y="-229.8" font-family="Times,serif" font-size="14.00" fill="#000000">AppComponent </text>
</g>
<!-- AppModule&#45;&gt;AppComponent  -->
<g id="edge6" class="edge">
<title>AppModule&#45;&gt;AppComponent </title>
<path fill="none" stroke="#000000" stroke-dasharray="1,5" d="M318,-187.1061C318,-187.1061 318,-205.991 318,-205.991"/>
<polygon fill="#000000" stroke="#000000" points="314.5001,-205.9909 318,-215.991 321.5001,-205.991 314.5001,-205.9909"/>
</g>
<!-- !environment -->
<g id="node3" class="node">
<title>!environment</title>
<polygon fill="#8dd3c7" stroke="#000000" points="491.9232,-122 488.9232,-126 467.9232,-126 464.9232,-122 400.0768,-122 400.0768,-86 491.9232,-86 491.9232,-122"/>
<text text-anchor="middle" x="446" y="-99.8" font-family="Times,serif" font-size="14.00" fill="#000000">!environment</text>
</g>
<!-- !environment&#45;&gt;AppModule -->
<g id="edge2" class="edge">
<title>!environment&#45;&gt;AppModule</title>
<path fill="none" stroke="#000000" d="M446,-122.0225C446,-139.3734 446,-163 446,-163 446,-163 369.912,-163 369.912,-163"/>
<polygon fill="#000000" stroke="#000000" points="369.912,-159.5001 359.912,-163 369.912,-166.5001 369.912,-159.5001"/>
</g>
<!-- AppRoutingModule -->
<g id="node4" class="node">
<title>AppRoutingModule</title>
<polygon fill="#8dd3c7" stroke="#000000" points="382.2744,-122 379.2744,-126 358.2744,-126 355.2744,-122 253.7256,-122 253.7256,-86 382.2744,-86 382.2744,-122"/>
<text text-anchor="middle" x="318" y="-99.8" font-family="Times,serif" font-size="14.00" fill="#000000">AppRoutingModule</text>
</g>
<!-- AppRoutingModule&#45;&gt;AppModule -->
<g id="edge3" class="edge">
<title>AppRoutingModule&#45;&gt;AppModule</title>
<path fill="none" stroke="#000000" d="M318,-122.1061C318,-122.1061 318,-140.991 318,-140.991"/>
<polygon fill="#000000" stroke="#000000" points="314.5001,-140.9909 318,-150.991 321.5001,-140.991 314.5001,-140.9909"/>
</g>
<!-- AuthModule -->
<g id="node5" class="node">
<title>AuthModule</title>
<polygon fill="#8dd3c7" stroke="#000000" points="235.5482,-122 232.5482,-126 211.5482,-126 208.5482,-122 148.4518,-122 148.4518,-86 235.5482,-86 235.5482,-122"/>
<text text-anchor="middle" x="192" y="-99.8" font-family="Times,serif" font-size="14.00" fill="#000000">AuthModule</text>
</g>
<!-- AuthModule&#45;&gt;AppModule -->
<g id="edge4" class="edge">
<title>AuthModule&#45;&gt;AppModule</title>
<path fill="none" stroke="#000000" d="M192,-122.0225C192,-139.3734 192,-163 192,-163 192,-163 266.0438,-163 266.0438,-163"/>
<polygon fill="#000000" stroke="#000000" points="266.0439,-166.5001 276.0438,-163 266.0438,-159.5001 266.0439,-166.5001"/>
</g>
<!-- MaterialModule -->
<g id="node6" class="node">
<title>MaterialModule</title>
<polygon fill="#8dd3c7" stroke="#000000" points="130.4706,-122 127.4706,-126 106.4706,-126 103.4706,-122 23.5294,-122 23.5294,-86 130.4706,-86 130.4706,-122"/>
<text text-anchor="middle" x="77" y="-99.8" font-family="Times,serif" font-size="14.00" fill="#000000">MaterialModule</text>
</g>
<!-- MaterialModule&#45;&gt;AppModule -->
<g id="edge5" class="edge">
<title>MaterialModule&#45;&gt;AppModule</title>
<path fill="none" stroke="#000000" d="M77,-122.2843C77,-143.3211 77,-175 77,-175 77,-175 266.2961,-175 266.2961,-175"/>
<polygon fill="#000000" stroke="#000000" points="266.2962,-178.5001 276.2961,-175 266.2961,-171.5001 266.2962,-178.5001"/>
</g>
</g>
</svg>
